<svg width="34" height="24" viewBox="0 0 34 24" fill="none" xmlns="http://www.w3.org/2000/svg">
  <path fill="#fff" d="M0 0h34v24H0z"/>
  <path d="M14.365 12.395l.71-4.477h-.758c-.355 0-.813-.2-.947-.566-.043-.123-.146-.548.44-.963.21-.145.345-.306.372-.43a.334.334 0 00-.097-.329c-.129-.123-.382-.193-.705-.193-.543 0-.925.312-.963.538-.027.167.102.301.215.387.34.253.42.62.21.964-.215.355-.683.586-1.184.592h-.774c-.065.435-1.12 7.119-1.2 7.646h4.202c.038-.236.232-1.501.495-3.17h-.016z" fill="#479CBE"/>
  <path d="M19.994 4h-4.278l-.57 3.622h.726c.398 0 .775-.183.936-.447a.432.432 0 00.076-.231c0-.151-.103-.264-.205-.34-.28-.21-.339-.43-.339-.586 0-.032 0-.06.005-.086.06-.382.576-.797 1.26-.797.409 0 .72.097.91.275a.632.632 0 01.182.608c-.06.274-.334.5-.49.613-.414.291-.36.544-.333.62.086.225.414.37.667.37h1.103v.006c1.507.01 2.314.705 2.061 2.32-.237 1.5-1.388 2.146-2.76 2.157L18.4 15.57h.802c3.385 0 6.15-2.174 6.694-5.608C26.57 5.7 23.868 4 19.994 4z" fill="#00A5C3"/>
  <path d="M19.994 4h-4.278l-.57 3.622h.726c.398 0 .775-.183.936-.447a.432.432 0 00.076-.231c0-.151-.103-.264-.205-.34-.28-.21-.339-.43-.339-.586 0-.032 0-.06.005-.086.06-.382.576-.797 1.26-.797.409 0 .72.097.91.275a.632.632 0 01.182.608c-.06.274-.334.5-.49.613-.414.291-.36.544-.333.62.086.225.414.37.667.37h1.103v.006c1.507.01 2.314.705 2.061 2.32-.237 1.5-1.388 2.146-2.76 2.157L18.4 15.57h.802c3.385 0 6.15-2.174 6.694-5.608C26.57 5.7 23.868 4 19.994 4zM9.457 17.108h1.717c.732 0 .91.372.856.71-.043.275-.232.48-.555.614.41.156.57.398.512.78-.076.48-.49.834-1.034.834H9l.457-2.938zm1.136 1.216c.334 0 .49-.177.522-.387.032-.226-.07-.382-.404-.382h-.296l-.118.77h.296zm-.183 1.27c.344 0 .543-.14.592-.425.037-.247-.102-.393-.436-.393h-.34l-.128.824h.312v-.006zm3.982.474c-.447.032-.662-.016-.77-.21-.236.146-.5.22-.78.22-.506 0-.683-.263-.635-.553a.658.658 0 01.232-.388c.28-.242.968-.274 1.237-.457.022-.205-.059-.28-.312-.28-.296 0-.543.097-.968.387l.102-.667c.366-.264.72-.387 1.13-.387.522 0 .985.215.899.785l-.103.646c-.037.226-.027.296.226.301l-.258.603zm-.775-1.012c-.237.151-.678.124-.726.436-.022.146.07.253.215.253.14 0 .312-.059.452-.156a.592.592 0 01.01-.21l.05-.323zm1.609-1.286h.893l-.048.296c.285-.242.5-.333.78-.333.5 0 .732.306.651.807l-.231 1.501h-.893l.193-1.243c.038-.226-.032-.333-.204-.333-.14 0-.27.075-.393.242l-.204 1.329h-.894l.35-2.266zm2.971-.661h.893l-.226 1.442.855-.78h1.104l-1.098.968.882 1.303h-1.124l-.678-1.05h-.011l-.162 1.05h-.893l.457-2.933z" fill="#235971"/>
  <path d="M21.36 17.108h1.029l-.453 2.933H20.91l.452-2.933zm1.529.001h1.469c1.135 0 1.464.823 1.356 1.507-.102.667-.63 1.426-1.625 1.426H22.43l.458-2.933zm.952 2.233c.5 0 .775-.247.856-.77.06-.387-.06-.769-.614-.769h-.274l-.237 1.54h.27z" fill="#479CBE"/>
</svg>
