<svg width="34" height="24" viewBox="0 0 34 24" fill="none" xmlns="http://www.w3.org/2000/svg">
  <path fill="#fff" d="M0 0h34v24H0z"/>
  <path d="M29.958 12.984H4v5.029h25.958v-5.029z" fill="#ED1C24"/>
  <path d="M10.253 14.26h1.678c.778 0 1.287.234 1.287.643 0 .292-.328.467-.688.541v.008c.434.064.774.268.774.604 0 .316-.25.658-1.25.658h-1.801V14.26zm.982 2.002h.555c.241 0 .477-.078.477-.273 0-.22-.2-.273-.477-.273h-.555v.546zm0-1.033h.5c.25 0 .5-.055.5-.263 0-.208-.263-.262-.5-.262h-.5v.525zm3.407-.969h1.054l1.177 2.454H15.85l-.205-.467h-1.168l-.222.467h-.778l1.165-2.454zm.054 1.475h.732l-.346-.802h-.009l-.377.802zm2.61-1.475h.914l1.223 1.301h.01V14.26h.754v2.454h-.738l-1.4-1.39h-.009v1.39h-.755l.002-2.454zm3.57 0h.981v.983h.01l1.005-.983h.936l-.843.811 1.067 1.643h-1.055l-.677-1.048-.446.421v.624h-.981l.003-2.451z" fill="#fff"/>
  <path d="M4 11.796h.552V7.362H4v-.278h2.966v.278h-.552v4.434h.552v.29H4v-.29zm21.296-4.011C25.793 7.273 26.477 7 27.277 7c1.615 0 2.717 1.16 2.717 2.609s-1.098 2.619-2.712 2.619a2.764 2.764 0 01-1.792-.605 2.65 2.65 0 01-.194-3.838zm1.981 4.237c.339 0 .527-.265.527-.872V8.067c0-.606-.185-.866-.527-.866-.341 0-.516.267-.516.866v3.083c.004.6.181.872.52.872h-.004zm-4.319-4.937v.277h.025c.548 0 .624.13.624.562v1.83l-1.932-2.669H19.21v.277h.026c.114 0 .308.025.392.142l.163.226v3.512c0 .432-.026.555-.567.555h-.014v.29h1.545v-.29h-.032c-.534 0-.58-.121-.58-.554V8.165l2.835 3.922h.967V7.924c0-.432.076-.562.616-.562h.044v-.277h-1.647zm-4.309 4.711l-1.715-4.711h-1.37l-1.476 4.143c-.094.262-.235.433-.437.516a.665.665 0 01-.237.052h-.22l-1.926-3.353.703-.703c.217-.2.49-.326.783-.361.105-.01.241-.02.36-.02v-.276h-2.288v.277h.235c.114 0 .343 0 .43.147.06.106.024.265-.105.397L9.78 9.514V7.362h.472v-.277H7.379v.277h.501v4.434h-.5v.29h2.869v-.29h-.47V9.523l1.308 2.273h-.537v.29h4.313v-.291h-.072a1.207 1.207 0 01-.143-.012c-.353-.091-.269-.36-.198-.56l.257-.738h1.457l.471 1.307h-.433v.29h2.78v-.29l-.332.004zm-3.83-1.637l.6-1.706.619 1.706h-1.22z" fill="#ED1C24"/>
</svg>
