<svg width="32" height="32" viewBox="0 0 32 32" fill="none" xmlns="http://www.w3.org/2000/svg">
  <path d="M29 3H3v26h26V3z" fill="#fff"/>
  <path d="M29 16H3v13h26V16zM13.279 6.635l-2.448 5.838H9.235L8.03 7.814c-.073-.286-.13-.394-.358-.513a6.371 6.371 0 00-1.49-.493l.035-.17h2.571a.704.704 0 01.696.596l.637 3.378 1.576-3.973 1.582-.004zm6.254 3.94c.012-1.549-2.13-1.634-2.115-2.322 0-.209.205-.432.64-.489a2.83 2.83 0 011.49.263l.263-1.24c-.452-.17-.93-.26-1.413-.262-1.494 0-2.544.788-2.552 1.93-.01.84.75 1.313 1.321 1.589s.788.469.788.725c0 .394-.47.564-.903.57a3.152 3.152 0 01-1.551-.368l-.276 1.284a4.581 4.581 0 001.68.31c1.586 0 2.626-.788 2.626-1.997l.002.006zm3.937 1.898h1.397l-1.22-5.838H22.36a.685.685 0 00-.643.428l-2.267 5.41h1.593l.314-.872h1.938l.176.872zm-1.68-2.068l.797-2.193.456 2.193h-1.252zm-6.353-3.77l-1.25 5.838h-1.51l1.25-5.838h1.51z" fill="#1A1F71"/>
  <path d="M9.058 23.2c.217.122.463.187.713.188.34 0 .533-.162.533-.402 0-.24-.149-.355-.525-.49-.49-.17-.8-.433-.8-.853 0-.486.402-.849 1.05-.849.243-.006.484.044.704.145l-.131.437a1.295 1.295 0 00-.591-.14c-.341 0-.486.18-.486.354 0 .227.17.332.565.482.512.197.756.454.756.875 0 .476-.358.883-1.115.883a1.766 1.766 0 01-.8-.184l.127-.446zm3.884-.722H11.83v.866h1.242v.441h-1.78v-2.948h1.714v.443h-1.181v.76h1.11l.006.438zm2.672 1.22c-.244.095-.504.14-.766.132-.935 0-1.503-.587-1.503-1.484 0-.97.677-1.552 1.575-1.552.245-.01.488.036.713.131l-.114.428a1.434 1.434 0 00-.576-.114c-.6 0-1.032.377-1.032 1.085 0 .648.375 1.06 1.027 1.06.2 0 .399-.035.586-.106l.09.42zm.95-2.861v1.72c0 .577.24.844.603.844.394 0 .621-.263.621-.845v-1.719h.539v1.685c0 .91-.468 1.313-1.182 1.313-.683 0-1.124-.38-1.124-1.313v-1.684h.543zm2.337.045a4.61 4.61 0 01.813-.066c.424 0 .709.07.91.237a.75.75 0 01.253.595.773.773 0 01-.537.734v.013c.214.079.34.285.411.568.061.278.139.553.231.822h-.55a3.644 3.644 0 01-.197-.694c-.088-.385-.223-.509-.525-.516h-.272v1.21h-.533l-.004-2.903zm.533 1.299h.32c.363 0 .586-.193.586-.486 0-.32-.223-.473-.574-.473a1.542 1.542 0 00-.332.026v.933zm3.561.297h-1.11v.866h1.241v.441h-1.78v-2.948h1.715v.443h-1.182v.76h1.11l.006.438z" fill="#fff"/>
</svg>
