<svg xmlns="http://www.w3.org/2000/svg" viewBox="0 0 104.8 57.57"><defs><style>.cls-1{fill:#d0661c;}.cls-2{fill:#222221;}.cls-3{fill:#fff;}.cls-4{fill:#222120;}.cls-5{fill:#222300;}.cls-6{fill:#191814;}</style></defs><g id="Layer_2" data-name="Layer 2"><polygon class="cls-1" points="25.98 0.82 82.38 0.82 82.38 56.75 25.98 56.75 0.27 28.79 25.98 0.82"/><path class="cls-2" d="M104,57.57H26.54a.83.83,0,0,1-.61-.26L.22,29.34a.82.82,0,0,1,0-1.11L25.93.27A.84.84,0,0,1,26.54,0H104a.83.83,0,0,1,.83.83V56.75A.83.83,0,0,1,104,57.57ZM26.54.83h0L.83,28.79l25.71,28H104V.83Z"/><path class="cls-3" d="M61.81,17.23a10.6,10.6,0,0,1-.05,1.08,2.26,2.26,0,0,1-.16.7,1,1,0,0,1-.24.38.45.45,0,0,1-.32.13H52.68V27h7.85a.48.48,0,0,1,.31.1.92.92,0,0,1,.25.37,2.84,2.84,0,0,1,.16.68,10.24,10.24,0,0,1,0,1.07,10.39,10.39,0,0,1,0,1.07,3.32,3.32,0,0,1-.16.7,1,1,0,0,1-.25.4.45.45,0,0,1-.31.12H52.68v10.3a.75.75,0,0,1-.11.4.9.9,0,0,1-.43.29,3.29,3.29,0,0,1-.8.18,10.52,10.52,0,0,1-1.26.07,10.79,10.79,0,0,1-1.26-.07,3.29,3.29,0,0,1-.8-.18.87.87,0,0,1-.42-.29.62.62,0,0,1-.13-.4V16.7a1.82,1.82,0,0,1,.44-1.36,1.56,1.56,0,0,1,1.1-.42H61a.49.49,0,0,1,.32.12,1,1,0,0,1,.24.39,2.26,2.26,0,0,1,.16.71C61.79,16.44,61.81,16.81,61.81,17.23Z"/><path class="cls-2" d="M50.08,43a9.33,9.33,0,0,1-1.29-.07,3.31,3.31,0,0,1-.86-.2,1.06,1.06,0,0,1-.54-.37.91.91,0,0,1-.18-.56V16.7a2,2,0,0,1,.52-1.55A1.84,1.84,0,0,1,49,14.66H61a.74.74,0,0,1,.49.18,1.34,1.34,0,0,1,.32.49,2.84,2.84,0,0,1,.17.78,9.3,9.3,0,0,1,0,1.12,8.93,8.93,0,0,1,0,1.11,2.76,2.76,0,0,1-.17.77,1.42,1.42,0,0,1-.31.47.71.71,0,0,1-.5.2H53v6.91h7.58a.81.81,0,0,1,.47.16,1.13,1.13,0,0,1,.33.47,2.74,2.74,0,0,1,.18.76c0,.31.05.68.05,1.1s0,.79-.05,1.1a2.91,2.91,0,0,1-.18.77,1.17,1.17,0,0,1-.32.5.72.72,0,0,1-.48.18H53v10a.94.94,0,0,1-.17.55,1.13,1.13,0,0,1-.55.39,3.83,3.83,0,0,1-.86.19A9.14,9.14,0,0,1,50.08,43ZM49,15.19a1.29,1.29,0,0,0-.92.34,1.58,1.58,0,0,0-.36,1.17V41.77a.36.36,0,0,0,.08.24.58.58,0,0,0,.31.2,2.8,2.8,0,0,0,.74.17,12.54,12.54,0,0,0,2.45,0,3,3,0,0,0,.74-.17.6.6,0,0,0,.3-.19.41.41,0,0,0,.07-.25V31.2h8.11a.19.19,0,0,0,.14-.05.82.82,0,0,0,.17-.29,2.41,2.41,0,0,0,.15-.64,10.84,10.84,0,0,0,0-2.08,2.4,2.4,0,0,0-.14-.61.59.59,0,0,0-.17-.26.23.23,0,0,0-.15-.05H52.42v-8H61a.2.2,0,0,0,.14-.06.81.81,0,0,0,.18-.3,2.39,2.39,0,0,0,.14-.62,10,10,0,0,0,0-1.05,10.47,10.47,0,0,0,0-1.06,2.57,2.57,0,0,0-.14-.64.82.82,0,0,0-.17-.29.21.21,0,0,0-.15-.05Z"/><path class="cls-4" d="M99.83,17.31a3.14,3.14,0,0,1,.16.62.38.38,0,0,1-.08.34.77.77,0,0,1-.43.14c-.2,0-.48,0-.83,0l-.86,0a1.67,1.67,0,0,1-.47-.07.42.42,0,0,1-.23-.13A.82.82,0,0,1,97,18L96,15.18H90.78l-.88,2.74a.83.83,0,0,1-.12.25.42.42,0,0,1-.22.16,1.58,1.58,0,0,1-.45.08,7.48,7.48,0,0,1-.75,0,7.36,7.36,0,0,1-.78,0,.59.59,0,0,1-.39-.15.42.42,0,0,1-.07-.36,3,3,0,0,1,.16-.6L91.6,4.86a1.05,1.05,0,0,1,.15-.3A.55.55,0,0,1,92,4.39a2.72,2.72,0,0,1,.53-.08h1.9a3.36,3.36,0,0,1,.59.08.55.55,0,0,1,.3.18.87.87,0,0,1,.16.32ZM93.4,7h0l-2,6h4Z"/><path class="cls-5" d="M93.56,35.91a1.11,1.11,0,0,1-1.11-1.11V22.88a1.11,1.11,0,0,1,2.22,0V34.8A1.11,1.11,0,0,1,93.56,35.91Z"/><path class="cls-5" d="M96.72,27.09a1.11,1.11,0,0,1-.78-.32l-2.38-2.38-2.38,2.38a1.11,1.11,0,0,1-1.56-1.57L92.78,22a1.1,1.1,0,0,1,1.56,0l3.17,3.16a1.12,1.12,0,0,1,0,1.57A1.14,1.14,0,0,1,96.72,27.09Z"/><path class="cls-6" d="M99,41.23a4.11,4.11,0,0,1,0,.53,2.08,2.08,0,0,1-.07.36.31.31,0,0,1-.11.18.2.2,0,0,1-.15.06,1,1,0,0,1-.41-.19,7,7,0,0,0-.76-.42,8.14,8.14,0,0,0-1.14-.42,5.3,5.3,0,0,0-1.52-.19,4,4,0,0,0-1.68.35,3.62,3.62,0,0,0-1.28,1A4.32,4.32,0,0,0,91.05,44a6.13,6.13,0,0,0-.29,2,6.94,6.94,0,0,0,.29,2.09,4.29,4.29,0,0,0,.82,1.51,3.26,3.26,0,0,0,1.25.92,4.12,4.12,0,0,0,1.63.31,3.56,3.56,0,0,0,.86-.11,3.19,3.19,0,0,0,.79-.32v-3.2H94c-.12,0-.21-.08-.28-.24a2.56,2.56,0,0,1-.1-.82,3.43,3.43,0,0,1,0-.5,1.17,1.17,0,0,1,.07-.33.51.51,0,0,1,.12-.18A.25.25,0,0,1,94,45H98.3a.67.67,0,0,1,.28.06.68.68,0,0,1,.21.17.89.89,0,0,1,.15.29,1.4,1.4,0,0,1,0,.38v5.5a1.4,1.4,0,0,1-.11.56.76.76,0,0,1-.42.38c-.22.09-.48.19-.8.29s-.64.18-1,.26-.68.12-1,.16-.69,0-1,0a7.39,7.39,0,0,1-2.74-.48,5.31,5.31,0,0,1-2.05-1.38,5.91,5.91,0,0,1-1.28-2.2,8.9,8.9,0,0,1-.45-2.94,9.08,9.08,0,0,1,.48-3,6.46,6.46,0,0,1,1.34-2.3A5.86,5.86,0,0,1,92,39.34a7.27,7.27,0,0,1,2.74-.5,7.8,7.8,0,0,1,1.51.13,8.66,8.66,0,0,1,1.19.29,5.33,5.33,0,0,1,.85.38,2,2,0,0,1,.46.36.92.92,0,0,1,.2.42A4,4,0,0,1,99,41.23Z"/></g></svg>